<?xml version="1.0" encoding="UTF-8"?>
<svg xmlns="http://www.w3.org/2000/svg" xmlns:xlink="http://www.w3.org/1999/xlink" width="562.5pt" height="145pt" viewBox="0 0 562.5 145" version="1.1">
<defs>
<clipPath id="clip1">
  <path d="M 555 137 L 562.5 137 L 562.5 145 L 555 145 Z M 555 137 "/>
</clipPath>
</defs>
<g id="surface1">
<path style=" stroke:none;fill-rule:evenodd;fill:rgb(3.137207%,17.651367%,46.263123%);fill-opacity:1;" d="M 0.0390625 13.777344 L 0.0390625 131.085938 C 0.0390625 140.320313 4.660156 144.941406 13.894531 144.941406 L 184.777344 144.941406 C 194.011719 144.941406 198.632813 140.320313 198.632813 131.085938 L 198.632813 13.777344 C 198.632813 4.542969 194.011719 -0.078125 184.777344 -0.078125 L 13.894531 -0.078125 C 4.660156 -0.078125 0.0390625 4.542969 0.0390625 13.777344 Z M 0.0390625 13.777344 "/>
<path style=" stroke:none;fill-rule:evenodd;fill:rgb(94.53125%,30.589294%,9.008789%);fill-opacity:1;" d="M 98.828125 31.917969 C 103.003906 31.917969 106.386719 35.304688 106.386719 39.476563 C 106.386719 43.648438 103.003906 47.035156 98.828125 47.035156 C 94.65625 47.035156 91.269531 43.648438 91.269531 39.476563 C 91.269531 35.304688 94.65625 31.917969 98.828125 31.917969 Z M 98.828125 31.917969 "/>
<path style=" stroke:none;fill-rule:evenodd;fill:rgb(94.53125%,30.589294%,9.008789%);fill-opacity:1;" d="M 51.335938 75.121094 L 51.335938 72.410156 C 51.335938 72.410156 68.425781 65.757813 75.753906 62.910156 C 83.078125 60.0625 90.402344 53.144531 90.402344 53.144531 C 90.402344 53.144531 97.796875 43.367188 107.089844 54.363281 C 117.148438 66.269531 131.171875 69.117188 143.648438 74.636719 L 143.664063 76.683594 Z M 51.335938 75.121094 "/>
<path style=" stroke:none;fill-rule:evenodd;fill:rgb(94.53125%,30.589294%,9.008789%);fill-opacity:1;" d="M 18.777344 65.757813 C 17.015625 65.757813 14.371094 65.757813 13.488281 65.757813 C 12.605469 65.757813 7.382813 104.734375 88.773438 114.09375 C 87.835938 126.046875 68.242188 128.121094 62.324219 128.929688 L 63.136719 133 L 129.171875 133 C 129.171875 131.640625 129.171875 129.605469 129.171875 128.929688 C 126.195313 129.289063 103.019531 125.175781 103.425781 113.78125 C 122.160156 114.605469 151.820313 107.15625 162.238281 99.625 C 172.65625 92.09375 191.621094 76.050781 179.621094 59.148438 C 168.804688 43.910156 142.394531 63.183594 157.144531 73.898438 C 164.539063 79.269531 169.40625 72.730469 168.59375 69.066406 C 167.773438 67.980469 166.191406 68.464844 165.300781 69.242188 C 162.019531 72.101563 156.796875 66.335938 160.164063 62.542969 C 165.988281 55.984375 175.316406 63.613281 174.234375 69.597656 C 173.148438 75.582031 169.351563 79.800781 159.585938 79.597656 C 149.820313 79.394531 71.105469 80.1875 26.917969 78.375 C 21.730469 78.164063 19.269531 72.558594 18.777344 65.757813 Z M 18.777344 65.757813 "/>
<path style=" stroke:none;fill-rule:evenodd;fill:rgb(94.53125%,30.589294%,9.008789%);fill-opacity:1;" d="M 15.34375 60.667969 C 16.636719 50.542969 19.121094 42.15625 22.507813 35.324219 C 27.546875 25.171875 34.578125 18.429688 42.675781 14.523438 C 50.757813 10.621094 59.886719 9.554688 69.136719 10.734375 C 76.527344 11.679688 83.996094 14.058594 91.066406 17.566406 L 91.140625 17.601563 C 94.410156 19.222656 97.921875 21.042969 101.589844 22.941406 C 103.582031 23.976563 105.625 25.03125 107.699219 26.097656 L 109.339844 26.257813 C 134.914063 28.777344 159.957031 31.242188 179.1875 14.570313 L 181.339844 12.703125 L 181.246094 15.550781 C 180.464844 38.886719 170.015625 46.328125 155.617188 45.847656 C 141.3125 45.367188 123.160156 36.804688 106.984375 28.527344 C 74.234375 25.324219 40.851563 22.898438 17.644531 61.460938 L 14.59375 66.53125 Z M 24.742188 36.425781 C 22.132813 41.6875 20.078125 47.910156 18.714844 55.195313 C 40.980469 22.730469 71.007813 22.757813 101.042969 25.464844 L 100.449219 25.15625 C 96.800781 23.269531 93.308594 21.457031 90.039063 19.835938 L 89.964844 19.796875 C 83.125 16.40625 75.925781 14.109375 68.824219 13.203125 C 60.035156 12.082031 51.386719 13.082031 43.757813 16.765625 C 36.140625 20.441406 29.511719 26.808594 24.742188 36.425781 Z M 113.835938 29.195313 C 128.222656 36.347656 143.539063 42.953125 155.695313 43.359375 C 168.058594 43.773438 177.191406 37.539063 178.609375 18.265625 C 160.15625 32.667969 137.339844 31.445313 113.835938 29.195313 Z M 113.835938 29.195313 "/>
<g clip-path="url(#clip1)" clip-rule="nonzero">
<path style=" stroke:none;fill-rule:evenodd;fill:rgb(3.137207%,17.651367%,46.263123%);fill-opacity:1;" d="M 555.105469 144.019531 L 562.5625 144.019531 L 562.5625 137.367188 L 555.105469 137.367188 Z M 555.105469 144.019531 "/>
</g>
<path style=" stroke:none;fill-rule:evenodd;fill:rgb(3.137207%,17.651367%,46.263123%);fill-opacity:1;" d="M 500.761719 144.019531 L 508.214844 144.019531 L 508.214844 137.367188 L 500.761719 137.367188 Z M 500.761719 144.019531 "/>
<path style=" stroke:none;fill-rule:evenodd;fill:rgb(3.137207%,17.651367%,46.263123%);fill-opacity:1;" d="M 462.574219 132.726563 L 470.21875 132.054688 C 470.671875 134.351563 471.605469 136.03125 473.019531 137.105469 C 474.421875 138.171875 476.316406 138.714844 478.707031 138.714844 C 481.234375 138.714844 483.144531 138.238281 484.421875 137.277344 C 485.707031 136.324219 486.351563 135.207031 486.351563 133.929688 C 486.351563 133.105469 486.078125 132.410156 485.535156 131.835938 C 485 131.253906 484.058594 130.753906 482.710938 130.332031 C 481.796875 130.042969 479.695313 129.539063 476.425781 128.8125 C 472.210938 127.882813 469.261719 126.734375 467.566406 125.378906 C 465.175781 123.46875 463.980469 121.140625 463.980469 118.394531 C 463.980469 116.621094 464.542969 114.972656 465.664063 113.429688 C 466.785156 111.894531 468.410156 110.722656 470.519531 109.914063 C 472.636719 109.113281 475.183594 108.707031 478.171875 108.707031 C 483.0625 108.707031 486.730469 109.664063 489.203125 111.570313 C 491.667969 113.484375 492.960938 116.03125 493.089844 119.226563 L 485.238281 119.53125 C 484.902344 117.746094 484.175781 116.460938 483.070313 115.683594 C 481.96875 114.902344 480.308594 114.511719 478.101563 114.511719 C 475.816406 114.511719 474.023438 114.925781 472.738281 115.765625 C 471.90625 116.296875 471.488281 117.019531 471.488281 117.914063 C 471.488281 118.738281 471.878906 119.445313 472.65625 120.027344 C 473.644531 120.769531 476.054688 121.546875 479.875 122.347656 C 483.699219 123.15625 486.523438 123.988281 488.351563 124.84375 C 490.183594 125.707031 491.613281 126.878906 492.65625 128.375 C 493.6875 129.871094 494.203125 131.714844 494.203125 133.90625 C 494.203125 135.894531 493.585938 137.761719 492.347656 139.492188 C 491.105469 141.230469 489.359375 142.523438 487.09375 143.363281 C 484.828125 144.210938 482.003906 144.632813 478.625 144.632813 C 473.707031 144.632813 469.929688 143.621094 467.292969 141.59375 C 464.65625 139.5625 463.082031 136.605469 462.574219 132.726563 Z M 462.574219 132.726563 "/>
<path style=" stroke:none;fill-rule:evenodd;fill:rgb(3.137207%,17.651367%,46.263123%);fill-opacity:1;" d="M 413.691406 126.636719 C 413.691406 130.566406 414.714844 133.550781 416.746094 135.578125 C 418.78125 137.609375 421.363281 138.617188 424.496094 138.617188 C 427.621094 138.617188 430.195313 137.617188 432.207031 135.59375 C 434.207031 133.582031 435.210938 130.566406 435.210938 126.539063 C 435.210938 122.5625 434.234375 119.597656 432.285156 117.632813 C 430.332031 115.675781 427.730469 114.699219 424.496094 114.699219 C 421.253906 114.699219 418.644531 115.691406 416.664063 117.671875 C 414.6875 119.652344 413.691406 122.636719 413.691406 126.636719 Z M 405.601563 126.871094 C 405.601563 123.332031 406.191406 120.363281 407.378906 117.964844 C 408.265625 116.203125 409.472656 114.609375 411 113.203125 C 412.53125 111.804688 414.207031 110.761719 416.027344 110.082031 C 418.457031 109.160156 421.246094 108.707031 424.414063 108.707031 C 430.148438 108.707031 434.730469 110.292969 438.171875 113.46875 C 441.617188 116.640625 443.335938 121.050781 443.335938 126.703125 C 443.335938 132.3125 441.625 136.695313 438.210938 139.863281 C 434.796875 143.023438 430.230469 144.609375 424.523438 144.609375 C 418.734375 144.609375 414.136719 143.03125 410.71875 139.886719 C 407.304688 136.734375 405.601563 132.394531 405.601563 126.871094 Z M 405.601563 126.871094 "/>
<path style=" stroke:none;fill-rule:evenodd;fill:rgb(3.137207%,17.651367%,46.263123%);fill-opacity:1;" d="M 375.777344 115.175781 L 375.777344 138.164063 L 381.636719 138.164063 C 383.828125 138.164063 385.414063 138.0625 386.390625 137.835938 C 387.660156 137.550781 388.71875 137.074219 389.5625 136.394531 C 390.40625 135.714844 391.085938 134.59375 391.617188 133.039063 C 392.144531 131.488281 392.414063 129.363281 392.414063 126.679688 C 392.414063 123.996094 392.144531 121.941406 391.617188 120.503906 C 391.085938 119.0625 390.339844 117.941406 389.390625 117.140625 C 388.429688 116.332031 387.21875 115.789063 385.75 115.507813 C 384.652344 115.28125 382.507813 115.175781 379.300781 115.175781 Z M 367.925781 109.296875 L 382.28125 109.296875 C 385.515625 109.296875 387.976563 109.515625 389.679688 109.960938 C 391.960938 110.558594 393.917969 111.625 395.539063 113.164063 C 397.171875 114.691406 398.410156 116.566406 399.261719 118.78125 C 400.105469 121.003906 400.53125 123.734375 400.53125 126.992188 C 400.53125 129.847656 400.132813 132.3125 399.335938 134.382813 C 398.367188 136.90625 396.980469 138.949219 395.167969 140.507813 C 393.8125 141.699219 391.972656 142.621094 389.652344 143.28125 C 387.921875 143.773438 385.605469 144.019531 382.695313 144.019531 L 367.925781 144.019531 Z M 367.925781 109.296875 "/>
<path style=" stroke:none;fill-rule:evenodd;fill:rgb(3.137207%,17.651367%,46.263123%);fill-opacity:1;" d="M 308.289063 144.019531 L 308.289063 115.175781 L 296.75 115.175781 L 296.75 109.296875 L 327.664063 109.296875 L 327.664063 115.175781 L 316.152344 115.175781 L 316.152344 144.019531 Z M 308.289063 144.019531 "/>
<path style=" stroke:none;fill-rule:evenodd;fill:rgb(3.137207%,17.651367%,46.263123%);fill-opacity:1;" d="M 261.300781 132.726563 L 268.945313 132.054688 C 269.398438 134.351563 270.328125 136.03125 271.742188 137.105469 C 273.144531 138.171875 275.039063 138.714844 277.429688 138.714844 C 279.957031 138.714844 281.867188 138.238281 283.144531 137.277344 C 284.433594 136.324219 285.074219 135.207031 285.074219 133.929688 C 285.074219 133.105469 284.804688 132.410156 284.261719 131.835938 C 283.726563 131.253906 282.785156 130.753906 281.433594 130.332031 C 280.519531 130.042969 278.417969 129.539063 275.148438 128.8125 C 270.9375 127.882813 267.984375 126.734375 266.289063 125.378906 C 263.898438 123.46875 262.703125 121.140625 262.703125 118.394531 C 262.703125 116.621094 263.265625 114.972656 264.386719 113.429688 C 265.511719 111.894531 267.132813 110.722656 269.242188 109.914063 C 271.363281 109.113281 273.90625 108.707031 276.894531 108.707031 C 281.789063 108.707031 285.457031 109.664063 287.929688 111.570313 C 290.390625 113.484375 291.6875 116.03125 291.8125 119.226563 L 283.960938 119.53125 C 283.625 117.746094 282.902344 116.460938 281.796875 115.683594 C 280.691406 114.902344 279.035156 114.511719 276.824219 114.511719 C 274.542969 114.511719 272.746094 114.925781 271.460938 115.765625 C 270.628906 116.296875 270.210938 117.019531 270.210938 117.914063 C 270.210938 118.738281 270.601563 119.445313 271.378906 120.027344 C 272.367188 120.769531 274.777344 121.546875 278.597656 122.347656 C 282.421875 123.15625 285.246094 123.988281 287.078125 124.84375 C 288.90625 125.707031 290.339844 126.878906 291.378906 128.375 C 292.410156 129.871094 292.929688 131.714844 292.929688 133.90625 C 292.929688 135.894531 292.3125 137.761719 291.070313 139.492188 C 289.832031 141.230469 288.082031 142.523438 285.816406 143.363281 C 283.554688 144.210938 280.726563 144.632813 277.347656 144.632813 C 272.429688 144.632813 268.652344 143.621094 266.019531 141.59375 C 263.382813 139.5625 261.808594 136.605469 261.300781 132.726563 Z M 261.300781 132.726563 "/>
<path style=" stroke:none;fill-rule:evenodd;fill:rgb(3.137207%,17.651367%,46.263123%);fill-opacity:1;" d="M 302.746094 89.832031 L 302.746094 55.398438 L 310.597656 55.398438 L 310.597656 83.980469 L 330.128906 83.980469 L 330.128906 89.832031 Z M 302.746094 89.832031 "/>
<path style=" stroke:none;fill-rule:evenodd;fill:rgb(3.137207%,17.651367%,46.263123%);fill-opacity:1;" d="M 234.871094 60.992188 L 234.871094 83.980469 L 240.730469 83.980469 C 242.921875 83.980469 244.507813 83.875 245.484375 83.648438 C 246.753906 83.367188 247.8125 82.890625 248.65625 82.210938 C 249.496094 81.53125 250.175781 80.40625 250.710938 78.855469 C 251.234375 77.304688 251.507813 75.175781 251.507813 72.492188 C 251.507813 69.808594 251.234375 67.757813 250.710938 66.316406 C 250.175781 64.878906 249.433594 63.753906 248.484375 62.953125 C 247.523438 62.144531 246.308594 61.605469 244.839844 61.320313 C 243.746094 61.097656 241.597656 60.992188 238.394531 60.992188 Z M 227.015625 55.113281 L 241.371094 55.113281 C 244.605469 55.113281 247.070313 55.332031 248.773438 55.777344 C 251.054688 56.375 253.011719 57.441406 254.632813 58.976563 C 256.261719 60.503906 257.503906 62.382813 258.355469 64.597656 C 259.199219 66.820313 259.621094 69.550781 259.621094 72.808594 C 259.621094 75.664063 259.226563 78.128906 258.429688 80.195313 C 257.457031 82.71875 256.074219 84.765625 254.261719 86.324219 C 252.902344 87.511719 251.0625 88.433594 248.746094 89.097656 C 247.015625 89.589844 244.695313 89.832031 241.789063 89.832031 L 227.015625 89.832031 Z M 227.015625 55.113281 "/>
<path style=" stroke:none;fill-rule:evenodd;fill:rgb(3.137207%,17.651367%,46.263123%);fill-opacity:1;" d="M 460.582031 24.355469 L 468.226563 23.683594 C 468.679688 25.980469 469.613281 27.660156 471.027344 28.738281 C 472.429688 29.804688 474.324219 30.34375 476.714844 30.34375 C 479.242188 30.34375 481.152344 29.867188 482.429688 28.90625 C 483.714844 27.953125 484.359375 26.835938 484.359375 25.558594 C 484.359375 24.734375 484.085938 24.039063 483.542969 23.464844 C 483.007813 22.882813 482.066406 22.382813 480.71875 21.960938 C 479.800781 21.671875 477.699219 21.171875 474.429688 20.441406 C 470.21875 19.511719 467.265625 18.363281 465.574219 17.007813 C 463.183594 15.097656 461.984375 12.769531 461.984375 10.023438 C 461.984375 8.253906 462.546875 6.605469 463.671875 5.058594 C 464.792969 3.523438 466.414063 2.351563 468.527344 1.542969 C 470.644531 0.742188 473.191406 0.339844 476.179688 0.339844 C 481.070313 0.339844 484.738281 1.292969 487.210938 3.199219 C 489.675781 5.117188 490.96875 7.664063 491.097656 10.855469 L 483.242188 11.164063 C 482.910156 9.375 482.183594 8.089844 481.078125 7.316406 C 479.972656 6.53125 478.316406 6.144531 476.105469 6.144531 C 473.824219 6.144531 472.03125 6.554688 470.746094 7.394531 C 469.910156 7.929688 469.496094 8.648438 469.496094 9.546875 C 469.496094 10.371094 469.882813 11.074219 470.664063 11.65625 C 471.652344 12.398438 474.058594 13.175781 477.882813 13.976563 C 481.703125 14.785156 484.53125 15.617188 486.359375 16.472656 C 488.191406 17.339844 489.621094 18.511719 490.660156 20.007813 C 491.695313 21.5 492.210938 23.34375 492.210938 25.535156 C 492.210938 27.523438 491.59375 29.390625 490.355469 31.121094 C 489.113281 32.859375 487.363281 34.152344 485.101563 34.992188 C 482.835938 35.84375 480.011719 36.261719 476.632813 36.261719 C 471.714844 36.261719 467.9375 35.253906 465.300781 33.222656 C 462.664063 31.195313 461.089844 28.234375 460.582031 24.355469 Z M 460.582031 24.355469 "/>
<path style=" stroke:none;fill-rule:evenodd;fill:rgb(3.137207%,17.651367%,46.263123%);fill-opacity:1;" d="M 426.796875 18.269531 C 426.796875 22.195313 427.820313 25.179688 429.851563 27.210938 C 431.886719 29.238281 434.46875 30.25 437.601563 30.25 C 440.726563 30.25 443.300781 29.246094 445.3125 27.226563 C 447.3125 25.210938 448.320313 22.195313 448.320313 18.171875 C 448.320313 14.195313 447.339844 11.226563 445.394531 9.261719 C 443.4375 7.308594 440.835938 6.328125 437.601563 6.328125 C 434.359375 6.328125 431.75 7.324219 429.769531 9.304688 C 427.792969 11.285156 426.796875 14.265625 426.796875 18.269531 Z M 418.707031 18.503906 C 418.707031 14.960938 419.296875 11.996094 420.484375 9.59375 C 421.371094 7.832031 422.578125 6.238281 424.109375 4.832031 C 425.636719 3.433594 427.3125 2.390625 429.132813 1.710938 C 431.5625 0.792969 434.351563 0.339844 437.523438 0.339844 C 443.253906 0.339844 447.839844 1.921875 451.28125 5.101563 C 454.722656 8.269531 456.441406 12.683594 456.441406 18.332031 C 456.441406 23.941406 454.730469 28.324219 451.316406 31.492188 C 447.902344 34.652344 443.335938 36.238281 437.628906 36.238281 C 431.84375 36.238281 427.242188 34.660156 423.828125 31.515625 C 420.414063 28.363281 418.707031 24.023438 418.707031 18.503906 Z M 418.707031 18.503906 "/>
<path style=" stroke:none;fill-rule:evenodd;fill:rgb(3.137207%,17.651367%,46.263123%);fill-opacity:1;" d="M 388.9375 15.609375 L 394.742188 15.609375 C 398.511719 15.609375 400.867188 15.472656 401.808594 15.1875 C 402.742188 14.90625 403.476563 14.414063 404.007813 13.71875 C 404.535156 13.023438 404.804688 12.15625 404.804688 11.113281 C 404.804688 9.941406 404.453125 9.003906 403.757813 8.285156 C 403.058594 7.566406 402.070313 7.113281 400.792969 6.917969 C 400.160156 6.847656 398.25 6.804688 395.0625 6.804688 L 388.9375 6.804688 Z M 381.074219 35.648438 L 381.074219 0.929688 L 397.617188 0.929688 C 401.773438 0.929688 404.789063 1.242188 406.671875 1.867188 C 408.554688 2.488281 410.070313 3.597656 411.203125 5.1875 C 412.332031 6.789063 412.894531 8.609375 412.894531 10.660156 C 412.894531 13.265625 412.035156 15.421875 410.324219 17.121094 C 408.609375 18.808594 406.039063 19.886719 402.625 20.320313 C 404.328125 21.210938 405.730469 22.179688 406.835938 23.238281 C 407.941406 24.300781 409.425781 26.175781 411.300781 28.875 L 416.054688 35.648438 L 406.664063 35.648438 L 400.984375 28.089844 C 398.964844 25.390625 397.589844 23.691406 396.84375 22.988281 C 396.101563 22.285156 395.3125 21.808594 394.480469 21.542969 C 393.648438 21.285156 392.335938 21.15625 390.523438 21.15625 L 388.9375 21.15625 L 388.9375 35.648438 Z M 381.074219 35.648438 "/>
<path style=" stroke:none;fill-rule:evenodd;fill:rgb(3.137207%,17.651367%,46.263123%);fill-opacity:1;" d="M 341.757813 0.929688 L 349.609375 0.929688 L 349.609375 19.730469 C 349.609375 22.714844 349.710938 24.65625 349.898438 25.535156 C 350.234375 26.957031 351.042969 28.097656 352.300781 28.957031 C 353.566406 29.820313 355.296875 30.25 357.492188 30.25 C 359.71875 30.25 361.402344 29.84375 362.535156 29.027344 C 363.667969 28.21875 364.347656 27.21875 364.574219 26.035156 C 364.808594 24.847656 364.917969 22.882813 364.917969 20.136719 L 364.917969 0.929688 L 372.769531 0.929688 L 372.769531 19.164063 C 372.769531 23.335938 372.5625 26.277344 372.136719 28 C 371.710938 29.722656 370.929688 31.171875 369.789063 32.359375 C 368.648438 33.539063 367.117188 34.484375 365.214844 35.1875 C 363.304688 35.890625 360.804688 36.238281 357.726563 36.238281 C 354.011719 36.238281 351.195313 35.859375 349.277344 35.089844 C 347.355469 34.324219 345.84375 33.328125 344.726563 32.109375 C 343.613281 30.886719 342.878906 29.601563 342.527344 28.257813 C 342.011719 26.269531 341.757813 23.335938 341.757813 19.449219 Z M 341.757813 0.929688 "/>
<path style=" stroke:none;fill-rule:evenodd;fill:rgb(3.137207%,17.651367%,46.263123%);fill-opacity:1;" d="M 317.636719 22.882813 L 317.636719 17.03125 L 334.566406 17.03125 L 334.566406 30.863281 C 332.917969 32.285156 330.535156 33.539063 327.410156 34.621094 C 324.285156 35.695313 321.125 36.238281 317.925781 36.238281 C 313.859375 36.238281 310.308594 35.476563 307.285156 33.957031 C 304.257813 32.429688 301.984375 30.257813 300.464844 27.417969 C 298.941406 24.582031 298.179688 21.5 298.179688 18.171875 C 298.179688 14.558594 299.03125 11.339844 300.726563 8.527344 C 302.429688 5.722656 304.910156 3.5625 308.191406 2.070313 C 310.679688 0.914063 313.789063 0.339844 317.5 0.339844 C 322.328125 0.339844 326.105469 1.242188 328.8125 3.046875 C 331.53125 4.855469 333.28125 7.355469 334.058594 10.546875 L 326.261719 11.851563 C 325.707031 10.144531 324.675781 8.792969 323.164063 7.808594 C 321.648438 6.820313 319.765625 6.328125 317.5 6.328125 C 314.070313 6.328125 311.34375 7.296875 309.3125 9.238281 C 307.285156 11.1875 306.277344 14.066406 306.277344 17.886719 C 306.277344 22.003906 307.304688 25.097656 309.359375 27.160156 C 311.40625 29.222656 314.09375 30.25 317.417969 30.25 C 319.066406 30.25 320.714844 29.957031 322.375 29.382813 C 324.023438 28.808594 325.445313 28.105469 326.632813 27.289063 L 326.632813 22.882813 Z M 317.636719 22.882813 "/>
<path style=" stroke:none;fill-rule:evenodd;fill:rgb(3.137207%,17.651367%,46.263123%);fill-opacity:1;" d="M 225.050781 24.355469 L 232.695313 23.683594 C 233.148438 25.980469 234.082031 27.660156 235.496094 28.738281 C 236.898438 29.804688 238.792969 30.34375 241.183594 30.34375 C 243.707031 30.34375 245.621094 29.867188 246.898438 28.90625 C 248.183594 27.953125 248.828125 26.835938 248.828125 25.558594 C 248.828125 24.734375 248.554688 24.039063 248.011719 23.464844 C 247.476563 22.882813 246.535156 22.382813 245.1875 21.960938 C 244.269531 21.671875 242.167969 21.171875 238.898438 20.441406 C 234.6875 19.511719 231.734375 18.363281 230.042969 17.007813 C 227.652344 15.097656 226.457031 12.769531 226.457031 10.023438 C 226.457031 8.253906 227.015625 6.605469 228.140625 5.058594 C 229.261719 3.523438 230.882813 2.351563 232.996094 1.542969 C 235.113281 0.742188 237.660156 0.339844 240.648438 0.339844 C 245.539063 0.339844 249.207031 1.292969 251.679688 3.199219 C 254.144531 5.117188 255.4375 7.664063 255.566406 10.855469 L 247.710938 11.164063 C 247.378906 9.375 246.652344 8.089844 245.546875 7.316406 C 244.441406 6.53125 242.785156 6.144531 240.574219 6.144531 C 238.292969 6.144531 236.5 6.554688 235.214844 7.394531 C 234.378906 7.929688 233.964844 8.648438 233.964844 9.546875 C 233.964844 10.371094 234.351563 11.074219 235.132813 11.65625 C 236.121094 12.398438 238.527344 13.175781 242.351563 13.976563 C 246.171875 14.785156 249 15.617188 250.828125 16.472656 C 252.65625 17.339844 254.089844 18.511719 255.128906 20.007813 C 256.164063 21.5 256.679688 23.34375 256.679688 25.535156 C 256.679688 27.523438 256.0625 29.390625 254.824219 31.121094 C 253.582031 32.859375 251.832031 34.152344 249.570313 34.992188 C 247.304688 35.84375 244.480469 36.261719 241.101563 36.261719 C 236.183594 36.261719 232.40625 35.253906 229.769531 33.222656 C 227.132813 31.195313 225.558594 28.234375 225.050781 24.355469 Z M 225.050781 24.355469 "/>
<path style=" stroke:none;fill-rule:evenodd;fill:rgb(3.137207%,17.651367%,46.263123%);fill-opacity:1;" d="M 254.425781 122.871094 L 234.898438 122.871094 L 234.898438 118.585938 C 234.898438 116.710938 236.449219 115.175781 238.339844 115.175781 L 255.882813 115.175781 L 255.882813 109.296875 L 231.808594 109.296875 C 229.1875 109.296875 227.042969 111.421875 227.042969 114.019531 L 227.042969 139.296875 C 227.042969 141.894531 229.1875 144.019531 231.808594 144.019531 L 256.625 144.019531 L 256.625 138.164063 L 238.339844 138.164063 C 236.445313 138.164063 234.898438 136.628906 234.898438 134.753906 L 234.898438 128.714844 L 254.425781 128.714844 Z M 254.425781 122.871094 "/>
<path style=" stroke:none;fill-rule:evenodd;fill:rgb(3.137207%,17.651367%,46.263123%);fill-opacity:1;" d="M 293.671875 68.6875 L 274.144531 68.6875 L 274.144531 64.402344 C 274.144531 62.527344 275.695313 60.992188 277.585938 60.992188 L 295.128906 60.992188 L 295.128906 55.113281 L 271.054688 55.113281 C 268.433594 55.113281 266.289063 57.238281 266.289063 59.835938 L 266.289063 85.113281 C 266.289063 87.710938 268.433594 89.832031 271.054688 89.832031 L 295.871094 89.832031 L 295.871094 83.980469 L 277.585938 83.980469 C 275.691406 83.980469 274.144531 82.445313 274.144531 80.570313 L 274.144531 74.53125 L 293.671875 74.53125 Z M 293.671875 68.6875 "/>
<path style=" stroke:none;fill-rule:evenodd;fill:rgb(3.137207%,17.651367%,46.263123%);fill-opacity:1;" d="M 290.671875 14.5 L 271.144531 14.5 L 271.144531 10.21875 C 271.144531 8.339844 272.695313 6.804688 274.589844 6.804688 L 292.132813 6.804688 L 292.132813 0.929688 L 268.058594 0.929688 C 265.4375 0.929688 263.292969 3.050781 263.292969 5.648438 L 263.292969 30.925781 C 263.292969 33.523438 265.4375 35.648438 268.058594 35.648438 L 292.875 35.648438 L 292.875 29.796875 L 274.589844 29.796875 C 272.695313 29.796875 271.144531 28.261719 271.144531 26.382813 L 271.144531 20.347656 L 290.671875 20.347656 Z M 290.671875 14.5 "/>
<path style=" stroke:none;fill-rule:evenodd;fill:rgb(3.137207%,17.651367%,46.263123%);fill-opacity:1;" d="M 355.160156 130.285156 L 342.199219 130.285156 L 342.199219 119.546875 C 342.199219 117.140625 343.90625 115.175781 345.996094 115.175781 L 351.363281 115.175781 C 353.453125 115.175781 355.160156 117.144531 355.160156 119.546875 Z M 335.433594 144.019531 L 342.199219 144.019531 L 342.199219 136.128906 L 355.160156 136.128906 L 355.160156 144.019531 L 361.925781 144.019531 L 361.925781 118.769531 C 361.925781 113.5625 358.222656 109.296875 353.695313 109.296875 L 343.664063 109.296875 C 339.136719 109.296875 335.433594 113.5625 335.433594 118.769531 Z M 335.433594 144.019531 "/>
<path style=" stroke:none;fill-rule:evenodd;fill:rgb(3.137207%,17.651367%,46.263123%);fill-opacity:1;" d="M 542.136719 130.285156 L 529.175781 130.285156 L 529.175781 119.546875 C 529.175781 117.140625 530.882813 115.175781 532.972656 115.175781 L 538.339844 115.175781 C 540.429688 115.175781 542.136719 117.144531 542.136719 119.546875 Z M 522.410156 144.019531 L 529.175781 144.019531 L 529.175781 136.128906 L 542.136719 136.128906 L 542.136719 144.019531 L 548.902344 144.019531 L 548.902344 118.769531 C 548.902344 113.5625 545.199219 109.296875 540.671875 109.296875 L 530.640625 109.296875 C 526.113281 109.296875 522.410156 113.5625 522.410156 118.769531 Z M 522.410156 144.019531 "/>
</g>
</svg>
